<svg xmlns="http://www.w3.org/2000/svg" viewBox="0 0 1056 265">
    <g>
        <path d="M187.362613 64.9118673c-.520278.5830803-10.087847 11.3548333-16.854657 22.9260892 2.62591 6.2972679 4.84562 12.7678835 6.581301 19.3456605.187642.734366.479765 1.809125.824129 3.133926 6.153778-12.1921579 15.823697-23.9714317 17.892014-26.4340269-2.426541-6.4737679-5.241159-12.8099078-8.442787-18.9716488"
              fill="#99D3C8"></path>
    </g>
    <g fill="#FFF" fill-rule="evenodd">
        <path d="M1009.7927 116.900152c25.47868 0 45.21513 20.156721 45.21513 46.502497 0 26.344727-19.73645 46.501447-45.21513 46.501447-15.252248 0-25.837984-6.541006-28.889286-14.852265v50.646045h-21.531827V118.845855h21.531827v12.907613c3.051302-8.310208 13.637038-14.853316 28.889286-14.853316zm-110.674407-.706735c27.273008 0 49.343238 20.510771 49.343238 47.209548 0 26.698776-22.07023 47.208497-49.343238 47.208497-27.45212 0-49.344304-20.509721-49.344304-47.208497 0-26.698777 21.892184-47.209548 49.344304-47.209548zm-519.061392.707261c15.251178 0 25.657801 6.719607 28.886083 14.853315v-12.908664h21.532893v62.238313c0 7.425607 1.795385 10.432411 6.63994 10.432411 1.253784 0 3.228281-.1765 4.485264-.354051v17.152018c-2.692012 1.059-6.817986 1.414101-10.586802 1.414101-3.946862 0-8.612304-.531601-12.560232-2.830303-2.870058-1.944652-6.100471-5.126905-7.356388-10.785411-5.203845 7.603158-14.711709 13.968714-31.040758 13.968714-25.478689 0-45.217264-20.15672-45.217264-46.677946 0-26.345777 19.738575-46.502497 45.217264-46.502497zm386.163982-34.3576164v98.5405804c0 7.425607 1.795385 10.432411 6.641006 10.432411 1.253784 0 3.228281-.1765 4.484198-.354051v17.152018c-2.690945 1.059-6.816919 1.414101-10.585735 1.414101-3.946862 0-8.613371-.531601-12.560233-2.830303-2.870057-1.944652-6.100471-5.126905-7.357454-10.785411-5.202779 7.603158-14.711709 13.968714-31.039692 13.968714-25.479755 0-45.217264-20.15672-45.217264-46.677946 0-26.345777 19.737509-46.502497 45.217264-46.502497 15.251178 0 25.657801 6.719607 28.886083 14.853315V82.5430616h21.531827zM621.55933 117.076547c19.736442 0 33.313775 13.792215 33.313775 35.717087v28.113928c0 6.541006 1.075738 9.37131 6.100471 9.37131 1.076805 0 2.332721-.177551 3.049169-.355101v17.859068c-1.076804.353-2.346581 1.383634-7.370247 1.383634-11.304316 0-22.789876-4.773905-22.789876-23.338973v-29.70453c0-12.023012-7.211393-19.451771-17.259792-19.451771s-17.112664 7.252259-17.112664 19.451771v51.836369h-21.369773V156.12297c0-12.023012-6.885153-20.126253-17.29071-20.126253-10.048399 0-17.204352 7.926741-17.204352 20.126253v51.836369h-21.352715V118.84575h21.352715v12.731113c3.76775-8.487759 11.984515-14.500316 23.647055-14.500316 12.739345 0 21.74932 5.658506 26.054407 15.560366 5.562068-11.139461 15.493192-15.560366 28.232537-15.560366zM330.158824 85.0406977v19.6175753h-52.140341v31.608042h45.209077v19.617575h-45.209077v52.296343h-22.612601V85.0406977h74.752942zm172.355813 32.0358493c2.333788 0 5.564201.355102 6.459762.531602v20.51077c-2.511834-.531601-5.561003-.885651-8.970529-.885651-14.891888 0-24.402951 9.194809-24.402951 23.870574v46.855497h-21.352715V118.84575h21.352715v13.260613c4.307219-9.193759 13.995262-15.029816 26.913718-15.029816zm336.201529 0c2.332721 0 5.564201.355102 6.459761.531602v20.51077c-2.511833-.531601-5.562069-.885651-8.971594-.885651-14.890822 0-24.401885 9.194809-24.401885 23.870574v46.855497h-21.352715V118.84575h21.352715v13.260613c4.307218-9.193759 13.995261-15.029816 26.913718-15.029816zm60.402127 18.39004c-15.968692 0-27.991588 12.199512-27.991588 27.936378 0 15.735815 12.022896 27.936378 27.991588 27.936378 15.788514 0 27.990523-12.200563 27.990523-27.936378 0-15.736866-12.202009-27.936378-27.990523-27.936378zm-516.191335.70726c-15.251178 0-26.734606 11.668962-26.734606 27.229328 0 15.559315 11.483428 27.228276 26.734606 27.228276 15.610468 0 27.632299-11.668961 27.632299-27.228276 0-15.560366-12.021831-27.229328-27.632299-27.229328zm335.746073 0c-15.252245 0-26.735672 11.668962-26.735672 27.229328 0 15.559315 11.483427 27.228276 26.735672 27.228276 15.609401 0 27.632298-11.668961 27.632298-27.228276 0-15.560366-12.022897-27.229328-27.632298-27.229328zm288.248539-.000525c-15.611532 0-27.632296 11.668961-27.632296 27.229327 0 15.559316 12.020764 27.228277 27.632296 27.228277 15.25225 0 26.73567-11.668961 26.73567-27.228277 0-15.560366-11.48342-27.229327-26.73567-27.229327z"
              fill="#FFF" class="css-0"></path>
        <path d="M232.67519 20.353917c-2.581133-5.4347292-9.05582-7.7733542-14.606162-5.4200209-3.649408 1.8028215-7.273228 3.6665774-10.83308 5.6826697-7.871335 4.5207113-15.48573 9.5992887-22.665138 15.3302857-3.37221 2.681119-6.64527 5.520878-9.807451 8.4940625-3.896753-5.3590863-8.157061-10.5112054-12.879009-15.3449941-6.606889-6.7710863-14.110405-12.956991-22.708849-17.9767351-8.576056-4.99347915-18.379242-8.80924105-28.955382-10.14034522C99.6557061-.40164256 88.5710157.98934554 78.8243349 4.60444375c-9.8031863 3.58778274-18.4261522 9.04352385-25.849707 15.32818455-7.4651344 6.2867619-13.8022893 13.4245059-19.3568952 20.9415149-11.0559046 15.0960029-18.9912081 31.754241-24.56393838 49.0386339C3.52051133 107.21503.37965358 125.242194.02889248 143.526753c-.33690124 18.230979 2.23463606 36.956789 9.06754757 54.723405 3.45750225 8.844961 8.00460285 17.408363 13.70420415 25.278372 2.8679251 3.922923 6.0087829 7.672497 9.4183087 11.197244 3.4660314 3.468015 7.0855874 6.821515 11.05164 9.769485 3.9436635 2.963729 8.0675053 5.724694 12.4472214 8.054914 4.3466656 2.369092 8.8724433 4.44717 13.5432165 6.103958 2.3113984.89931 4.7048898 1.560134 7.067463 2.299753 2.4009544.601991 4.7859167 1.277524 7.2220538 1.715622 4.8413561 1.021179 9.7594744 1.612664 14.6701298 1.901578 9.8202446.557866 19.6905976-.174399 29.3487886-2.36489 9.641133-2.178935 19.002936-5.779325 27.60991-10.691908 8.597378-4.92414 16.413274-11.162574 23.109719-18.340241 6.70071-7.175566 12.27344-15.281958 16.636098-23.864271l.017058-.037821.012794-.027316c3.26453-6.452756.598106-14.290196-5.948013-17.505018-6.55145-3.214821-14.503812-.589384-17.765143 5.864423-6.644205 13.141896-16.806681 24.164741-29.361583 31.341357-12.529314 7.187122-27.365763 10.481789-42.1126548 9.582479-14.6701299-.810009-28.8402386-5.899092-40.3311296-14.676815-2.9148354-2.143214-5.5599366-4.632075-8.13254-7.181869-2.5160979-2.617033-4.8754727-5.394807-7.0472063-8.335423-4.3104168-5.908547-7.8404168-12.459009-10.5931984-19.402393-5.4266687-13.950854-7.7465962-29.386199-7.5077802-44.995943.2260224-15.606592 2.8849834-31.336104 7.6367835-46.3606668 4.7560646-15.0056518 11.6316219-29.4114137 20.6821111-41.8473096 4.5300423-6.1869553 9.6027515-11.8885357 15.2042676-16.6330238 5.5769949-4.7728541 11.6955905-8.5518452 18.0210178-10.893622 6.3456841-2.3522827 12.8150413-3.1454821 19.3195803-2.3533333 6.516267.7868958 13.089039 3.2043154 19.306786 6.7941994 6.220946 3.5919851 12.083667 8.3144107 17.400523 13.7344315 5.136678 5.2141042 9.777599 11.0743244 13.931293 17.3085566-31.948046 39.913164-34.25518 105.768676 15.353527 106.133232 46.523289-2.075976 29.476726-63.985452 28.237868-68.763559-1.517122-5.8150451-3.33383-11.5460421-5.444793-17.1719796-2.067252 2.4636458-11.738236 14.2439703-17.892015 26.4340266 2.564075 9.875595 7.961957 33.713601-6.243334 35.097235-11.495156.520045-13.170066-15.084446-12.037822-24.535601 2.29967-19.214336 10.631579-32.6031219 10.875726-33.0391189 5.820075-10.0647024 16.853591-22.9292411 16.853591-22.9292411 3.738964-3.9786042 7.747662-7.7565446 12.00797-11.285494 6.094075-5.0376042 12.645524-9.6339584 19.4827-13.8846667 3.00759-1.8259345 6.105802-3.5363036 9.229602-5.2046488 4.973558-2.8513155 7.077058-8.9489703 4.594011-14.1809345"
              fill="#FFF"></path>
    </g>
</svg>
